<svg width="1000" height="623" viewBox="0 0 1000 623" fill="none" xmlns="http://www.w3.org/2000/svg">
<g id="logo-no-background 1" clip-path="url(#clip0_1_2)">
<g id="Group">
<g id="Frame" clip-path="url(#clip1_1_2)">
<g id="tight-bounds">
<g id="Frame_2" clip-path="url(#clip2_1_2)">
<g id="Group_2">
<g id="Frame_3" clip-path="url(#clip3_1_2)">
<g id="Group_3">
<g id="Frame_4" clip-path="url(#clip4_1_2)">
<g id="Group_4">
<g id="Frame_5" clip-path="url(#clip5_1_2)">
<g id="Group_5">
<g id="Frame_6" clip-path="url(#clip6_1_2)">
<g id="textblocktransform">
<g id="textblock" clip-path="url(#clip7_1_2)">
<g id="Group_6">
<g id="Frame_7" clip-path="url(#clip8_1_2)">
<g id="Group_7">
<g id="Frame_8" clip-path="url(#clip9_1_2)">
<g id="text-0">
<path id="Vector" d="M136.446 245.338V368.126C136.446 373.845 137.621 378.025 139.973 380.667C142.295 383.279 146.722 385.18 153.253 386.371L152.295 388.939C144.341 387.865 138.347 387.299 134.312 387.241C130.277 387.183 125.038 387.749 118.594 388.939L117.94 387.894C119.363 385.834 120.074 382.074 120.074 376.617V264.888C120.074 254.903 118.884 248.168 116.504 244.685C114.152 241.201 109.101 239.75 101.351 240.331L100.959 238.328C112.657 234.844 123.746 233.103 134.225 233.103C135.706 236.847 136.446 240.926 136.446 245.338ZM211.077 237.674L153.906 296.239V297.937L215.431 367.909C223.791 377.256 232.441 383.41 241.382 386.371V388.286C236.476 387.793 232.804 387.474 230.366 387.328C227.928 387.212 224.793 387.256 220.961 387.459C217.129 387.662 213.689 388.228 210.641 389.157L209.161 388.286C209.306 386.748 208.421 384.803 206.505 382.452L139.755 304.555V302.291L196.926 243.291C198.493 241.666 197.158 240.287 192.92 239.155C189.233 238.168 185.3 237.747 181.12 237.892L180.467 235.018C192.513 233.451 202.644 233.161 210.859 234.148C211.498 235.076 211.57 236.252 211.077 237.674ZM283.357 245.338V342.393C283.357 350.173 284.097 356.675 285.577 361.9C287.058 367.096 289.133 371.261 291.804 374.396C294.474 377.502 297.667 379.709 301.383 381.015C305.099 382.321 309.192 382.974 313.662 382.974C317.9 382.974 322.312 382.394 326.899 381.233C331.456 380.071 336.028 378.446 340.614 376.356C345.172 374.266 349.628 371.784 353.982 368.91C358.336 366.036 362.429 362.93 366.261 359.592V264.888C366.261 260.215 366.057 256.296 365.651 253.132C365.216 249.997 364.432 247.471 363.3 245.556C362.168 243.64 360.571 242.275 358.51 241.463C356.449 240.65 354.258 240.243 351.935 240.243C349.584 240.243 348.133 240.272 347.581 240.331L347.146 238.328C358.699 234.844 369.788 233.103 380.412 233.103C381.892 236.847 382.632 240.926 382.632 245.338V368.126C382.632 371.029 382.894 373.497 383.416 375.529C383.968 377.59 384.882 379.331 386.159 380.754C387.437 382.176 389.149 383.323 391.297 384.193C393.474 385.093 396.189 385.819 399.44 386.371L398.482 388.939C394.215 388.388 390.528 387.967 387.422 387.677C384.316 387.386 381.689 387.241 379.541 387.241C377.567 387.241 375.361 387.386 372.923 387.677C370.484 387.967 367.77 388.388 364.78 388.939L364.127 387.894C365.549 385.834 366.261 382.074 366.261 376.617V367.909C354.562 376.269 343.982 382.307 334.519 386.022C325.084 389.738 316.245 391.596 308.001 391.596C303.125 391.596 298.233 391.03 293.328 389.897C288.451 388.765 284.068 386.82 280.178 384.063C276.259 381.305 273.081 377.633 270.642 373.047C268.204 368.489 266.985 362.771 266.985 355.891V264.888C266.985 260.215 266.767 256.296 266.332 253.132C265.925 249.997 265.156 247.471 264.024 245.556C262.892 243.64 261.295 242.275 259.234 241.463C257.173 240.65 254.967 240.243 252.616 240.243C250.294 240.243 248.842 240.272 248.262 240.331L247.826 238.328C259.379 234.844 270.512 233.103 281.223 233.103C282.645 237.137 283.357 241.216 283.357 245.338ZM458.831 245.338V380.754L494.144 379.578C499.311 379.433 503.708 378.852 507.337 377.836C510.936 376.82 514.057 375.195 516.698 372.96C519.311 370.724 521.444 368.373 523.099 365.906C524.783 363.467 526.64 360.202 528.672 356.109L531.764 357.372L521.357 385.761L519.529 387.241H444.506C443.141 384.251 442.459 380.783 442.459 376.835V264.888C442.459 254.903 441.284 248.168 438.932 244.685C436.552 241.201 431.501 239.75 423.78 240.331L423.344 238.328C435.043 234.844 446.175 233.103 456.741 233.103C458.134 236.992 458.831 241.071 458.831 245.338ZM548.049 385.108L612.97 239.895C615.379 238.415 618.151 235.584 621.286 231.404H622.331L680.895 372.481C683.537 378.78 688.893 383.206 696.962 385.761V387.677C692.347 387.183 686.817 387.096 680.373 387.416C673.929 387.735 668.225 388.315 663.261 389.157L662.39 388.112C663.812 386.254 664.161 383.163 663.435 378.838C662.68 374.513 660.503 367.952 656.904 359.157L639.356 315.179C618.514 314.831 601.286 314.904 587.672 315.397L563.114 372.481C561.634 375.732 562.185 378.46 564.769 380.667C567.352 382.844 572.432 384.687 580.008 386.196L579.617 388.112C567.28 387.183 557.207 386.893 549.398 387.241C548.992 386.806 548.542 386.095 548.049 385.108ZM614.45 253.611L590.546 309.127C600.822 309.388 616.206 309.388 636.7 309.127L614.45 253.611ZM799.547 365.253L850.013 239.373C855.122 235.628 860.651 233.248 866.602 232.232L880.753 368.126C881.189 373.845 882.669 377.894 885.195 380.275C887.749 382.655 892.364 384.092 899.041 384.585L898.388 387.241C890.231 387.038 883.888 387.111 879.36 387.459C874.832 387.807 870.013 388.838 864.904 390.551L864.164 389.375C865.499 387.111 865.891 383.352 865.339 378.098L852.886 254.482L798.241 391.378L790.795 387.894C790.534 382.844 788.517 375.717 784.743 366.515L736.194 259.054L723.741 372.481C723.45 374.948 723.639 376.951 724.307 378.489C725.003 379.999 726.644 381.407 729.227 382.713C731.81 384.019 735.657 385.18 740.766 386.196L740.33 388.112C728.69 387.241 719.619 386.951 713.116 387.241C712.536 386.661 712.1 385.95 711.81 385.108L727.877 245.947C725.903 244.322 723.465 243.466 720.562 243.378C717.659 243.262 714.887 243.524 712.246 244.162L710.983 242.029C721.549 236.078 731.186 233.103 739.895 233.103C741.608 236.934 751.158 258.197 768.546 296.892C785.933 335.586 796.267 358.373 799.547 365.253Z" fill="#CDCDCD"/>
</g>
</g>
</g>
</g>
</g>
</g>
</g>
</g>
</g>
</g>
</g>
</g>
</g>
<g id="Group_8">
<path id="Vector_2" d="M1.19647 623.252V-0.252228H998.804V623.252H1.19647ZM984.359 608.807V14.1928H15.6415V608.807H984.359Z" fill="#CDCDCD"/>
</g>
</g>
</g>
</g>
</g>
</g>
</g>
</g>
<defs>
<clipPath id="clip0_1_2">
<rect width="1000" height="623" fill="white"/>
</clipPath>
<clipPath id="clip1_1_2">
<rect width="1000" height="623" fill="white"/>
</clipPath>
<clipPath id="clip2_1_2">
<rect width="997.607" height="623.504" fill="white" transform="translate(1.19647 -0.252228)"/>
</clipPath>
<clipPath id="clip3_1_2">
<rect width="997.607" height="623.504" fill="white" transform="translate(1.19647 -0.252228)"/>
</clipPath>
<clipPath id="clip4_1_2">
<rect width="798.086" height="160.191" fill="white" transform="translate(100.957 231.404)"/>
</clipPath>
<clipPath id="clip5_1_2">
<rect width="798.086" height="160.191" fill="white" transform="translate(100.957 231.404)"/>
</clipPath>
<clipPath id="clip6_1_2">
<rect width="798.086" height="160.191" fill="white" transform="translate(100.957 231.404)"/>
</clipPath>
<clipPath id="clip7_1_2">
<rect width="798.086" height="160.191" fill="white" transform="translate(100.957 231.404)"/>
</clipPath>
<clipPath id="clip8_1_2">
<rect width="798.086" height="160.191" fill="white" transform="translate(100.957 231.404)"/>
</clipPath>
<clipPath id="clip9_1_2">
<rect width="798.086" height="160.191" fill="white" transform="translate(100.957 231.404)"/>
</clipPath>
</defs>
</svg>
